<?xml version="1.0" standalone="no"?><!DOCTYPE svg PUBLIC "-//W3C//DTD SVG 1.1//EN" "http://www.w3.org/Graphics/SVG/1.1/DTD/svg11.dtd"><svg class="icon" width="48px" height="48.00px" viewBox="0 0 1024 1024" version="1.1" xmlns="http://www.w3.org/2000/svg"><path d="M260.409075 939.832284c-37.705191 0-68.234232-30.650671-68.234232-68.234232v-603.28305c0-37.705191 30.650671-68.234232 68.234232-68.234232h501.965554c37.705191 0 68.234232 30.650671 68.234232 68.234232v603.28305c0 37.583561-30.650671 68.234232-68.234232 68.234232H260.409075z" fill="#BAD4FF" /><path d="M762.374629 218.568476c27.366671 0 49.624896 22.379855 49.624896 49.624896v603.28305c0 27.366671-22.379855 49.624896-49.624896 49.624896H260.409075C233.042404 921.222948 210.784179 898.843093 210.784179 871.476422v-603.28305c0-27.366671 22.379855-49.624896 49.624896-49.624896h501.965554m0-37.218672H260.409075c-47.922081 0-86.843568 38.921487-86.843568 86.843568v603.28305c0 47.922081 38.921487 86.843568 86.843568 86.843568h501.965554c47.922081 0 86.843568-38.921487 86.843568-86.843568v-603.28305c0-47.800451-38.921487-86.843568-86.843568-86.843568z" fill="#4E8CEE" /><path d="M308.574415 867.097755c-24.08267 0-43.665043-19.582373-43.665043-43.665043V318.912935c0-24.08267 19.582373-43.665043 43.665043-43.665043h405.513244c24.08267 0 43.665043 19.582373 43.665043 43.665043v504.398147c0 24.08267-19.582373 43.665043-43.665043 43.665043H308.574415z" fill="#FFFFFF" /><path d="M714.087659 291.789524c14.960447 0 27.123411 12.162965 27.123411 27.123411v504.398147c0 14.960447-12.162965 27.123411-27.123411 27.123411H308.574415c-14.960447 0-27.123411-12.162965-27.123411-27.123411V318.912935c0-14.960447 12.162965-27.123411 27.123411-27.123411h405.513244m0-33.083264H308.574415c-33.204894 0-60.206675 27.001782-60.206675 60.206675v504.398147c0 33.204894 27.001782 60.206675 60.206675 60.206675h405.513244c33.204894 0 60.206675-27.001782 60.206675-60.206675V318.912935c0-33.204894-27.001782-60.206675-60.206675-60.206675z" fill="#4E8CEE" /><path d="M426.433543 273.180188c-26.515263 0-48.043711-22.988003-48.04371-51.206082v-26.758522c0-28.218078 21.528448-51.206081 48.04371-51.206082h37.705191v-13.257631c0-27.853189 21.163559-50.476304 47.313933-50.476304h1.337926c25.298967 0.729778 45.976007 23.961041 45.976006 51.93586v11.676446h41.840599c26.515263 0 48.043711 22.988003 48.043711 51.206081v26.758523c0 28.218078-21.528448 51.206081-48.043711 51.206081H426.433543z" fill="#FFFFFF" /><path d="M511.452667 98.884903h0.729777c15.811854 0.486519 27.853189 15.811854 27.85319 33.326524v19.947262c0 5.716593 4.135408 10.33852 9.365483 10.33852h51.084451c16.176743 0 29.312745 14.717187 29.312745 32.596745v26.758523c0 18.001188-13.257632 32.596745-29.312745 32.596745H426.433543c-16.176743 0-29.312745-14.717187-29.312745-32.596745v-26.758523c0-18.001188 13.257632-32.596745 29.312745-32.596745H473.504217c5.108445 0 9.365483-4.621927 9.365482-10.33852v-21.528448c-0.12163-17.39304 12.649483-31.745338 28.582968-31.745338m0-37.218672c-18.122817 0-35.515857 7.905927-47.922081 21.650077-10.33852 11.554816-16.541632 26.272004-17.757929 41.962229h-19.339114c-36.732153 0-66.653047 31.380449-66.653047 69.815417v26.758523c0 38.556598 29.920893 69.815418 66.653047 69.815417h174.052025c36.732153 0 66.653047-31.380449 66.653047-69.815417v-26.758523c0-38.556598-29.920893-69.815418-66.653047-69.815417h-23.474522c-3.284-34.786079-30.529041-62.639268-63.733935-63.612306h-1.824444z" fill="#4E8CEE" /><path d="M379.727759 367.078275m-18.609336 0a18.609336 18.609336 0 1 0 37.218672 0 18.609336 18.609336 0 1 0-37.218672 0Z" fill="#BAD4FF" /><path d="M573.605416 385.930871H444.069842c-9.973631 0-18.244447-8.149186-18.244447-18.244447v-0.851408c0-9.973631 8.149186-18.244447 18.244447-18.244447h129.535574c9.973631 0 18.244447 8.149186 18.244447 18.244447v0.851408c0 10.095261-8.270816 18.244447-18.244447 18.244447z" fill="#BAD4FF" /><path d="M379.727759 564.361563m-18.609336 0a18.609336 18.609336 0 1 0 37.218672 0 18.609336 18.609336 0 1 0-37.218672 0Z" fill="#BAD4FF" /><path d="M504.276517 582.60601h-60.693194c-9.852001 0-17.879558-8.027557-17.879558-17.879558s8.027557-17.879558 17.879558-17.879558h60.693194c9.852001 0 17.879558 8.027557 17.879559 17.879558s-8.027557 17.879558-17.879559 17.879558z" fill="#BAD4FF" /><path d="M379.727759 465.719919m-18.609336 0a18.609336 18.609336 0 1 0 37.218672 0 18.609336 18.609336 0 1 0-37.218672 0Z" fill="#BAD4FF" /><path d="M643.785723 483.842737H443.583323c-9.852001 0-17.879558-8.027557-17.879558-17.879558s8.027557-17.879558 17.879558-17.879559H643.785723c9.852001 0 17.879558 8.027557 17.879558 17.879559s-8.027557 17.879558-17.879558 17.879558z" fill="#BAD4FF" /><path d="M379.727759 663.124837m-18.609336 0a18.609336 18.609336 0 1 0 37.218672 0 18.609336 18.609336 0 1 0-37.218672 0Z" fill="#4DFF4D" /><path d="M478.612662 681.247654h-35.029339c-9.852001 0-17.879558-8.027557-17.879558-17.879558s8.027557-17.879558 17.879558-17.879558h35.029339c9.852001 0 17.879558 8.027557 17.879558 17.879558s-8.027557 17.879558-17.879558 17.879558z" fill="#4DFF4D" /><path d="M674.314764 790.471077l-49.381637-44.75971c-8.027557-7.297779-8.757335-19.947262-1.337926-28.096448 7.297779-8.027557 19.947262-8.757335 28.096449-1.337926l49.381637 44.75971c8.027557 7.297779 8.757335 19.947262 1.337926 28.096448-7.419408 8.149186-19.947262 8.757335-28.096449 1.337926z" fill="#4E8CEE" /><path d="M607.540088 667.746763h-118.345647v-38.921487h118.345647c10.703409 0 19.460744 8.757335 19.460743 19.460744s-8.757335 19.460744-19.460743 19.460743z" fill="#4DFF4D" /><path d="M574.213565 588.809122c39.529635 0 71.518233 31.988597 71.518232 71.518233s-31.988597 71.518233-71.518232 71.518232-71.518233-31.988597-71.518233-71.518232 31.988597-71.518233 71.518233-71.518233m0-37.218672c-59.963416 0-108.736905 48.773489-108.736905 108.736905s48.773489 108.736905 108.736905 108.736904 108.736905-48.773489 108.736904-108.736904-48.773489-108.736905-108.736904-108.736905z" fill="#4E8CEE" /></svg>