<svg id="图层_1" data-name="图层 1" xmlns="http://www.w3.org/2000/svg" viewBox="0 0 210 55"><defs><style>.cls-1{fill:#3d4242;}.cls-2{fill:#c00;}</style></defs><title>000</title><path class="cls-1" d="M18,43.24,14.32,54.66H12.2L9.27,45.55l-3,9.11H4.14L.47,43.24h2l2.77,8.5L8,43.24h2.52l2.77,8.5L16,43.24Z"/><path class="cls-1" d="M39.71,43.24,36,54.66H33.93L31,45.55l-3,9.11H25.86L22.2,43.24h2l2.77,8.5,2.77-8.5h2.52L35,51.74l2.77-8.5Z"/><path class="cls-1" d="M61.43,43.24,57.77,54.66H55.65l-2.93-9.11-3,9.11H47.59L43.93,43.24h2l2.77,8.5,2.77-8.5h2.52l2.77,8.5,2.77-8.5Z"/><path class="cls-1" d="M69.81,55H67.36V53h2.44Z"/><path class="cls-1" d="M87.05,54.66H85.18l-7.57-9.18v9.18h-2V43.24h2.2l7.33,8.7v-8.7h1.87Z"/><path class="cls-1" d="M101.78,54.66H96.65q-3,0-4.23-1.09a5.06,5.06,0,0,1-1.22-3.81V43.24h10.58v1.63H93.07V48h8.22v1.56H93.07v.2a3.26,3.26,0,0,0,.81,2.58,4.16,4.16,0,0,0,2.77.68h5.13Z"/><path class="cls-1" d="M116.58,54.66h-5.13q-3,0-4.23-1.09A5.06,5.06,0,0,1,106,49.77V43.24h10.58v1.63h-8.71V48h8.22v1.56h-8.22v.2a3.26,3.26,0,0,0,.81,2.58,4.15,4.15,0,0,0,2.77.68h5.13Z"/><path class="cls-1" d="M131.8,46.84A3.2,3.2,0,0,1,130,49.77a6.07,6.07,0,0,1-2.85.68h-4.48v4.22H120.8V43.24h6.35a6.08,6.08,0,0,1,2.85.68A3.2,3.2,0,0,1,131.8,46.84Zm-1.87,0a1.71,1.71,0,0,0-1-1.56,3.64,3.64,0,0,0-1.79-.41h-4.48v3.94h4.48a3.64,3.64,0,0,0,1.79-.41A1.71,1.71,0,0,0,129.92,46.84Z"/><path class="cls-1" d="M140.09,55h-2.44V53h2.44Z"/><path class="cls-1" d="M158,51.06q0,3.6-4.72,3.6h-7V53h7a4.6,4.6,0,0,0,2-.34,1.79,1.79,0,0,0,.73-1.63q0-1.63-2.52-1.63h-2.93a6.27,6.27,0,0,1-3.18-.75,2.58,2.58,0,0,1-1.47-2.38,2.66,2.66,0,0,1,1.63-2.52,6.39,6.39,0,0,1,2.77-.54h7.08v1.63h-7.08q-2.44,0-2.44,1.43a1.23,1.23,0,0,0,.65,1.09,4.22,4.22,0,0,0,2,.41h2.93a6,6,0,0,1,2.93.68A2.82,2.82,0,0,1,158,51.06Z"/><path class="cls-1" d="M174.67,54.66h-2v-5h-8.06v5h-2V43.24h2V48h8.06V43.24h2Z"/><path class="cls-1" d="M191.91,48.95a5.57,5.57,0,0,1-2,4.28A6.51,6.51,0,0,1,185.32,55a6.69,6.69,0,0,1-4.64-1.77,5.83,5.83,0,0,1,0-8.57,6.69,6.69,0,0,1,4.64-1.77A6.51,6.51,0,0,1,190,44.67,5.57,5.57,0,0,1,191.91,48.95Zm-2,0a4.25,4.25,0,0,0-1.3-3.13,4.5,4.5,0,0,0-3.26-1.36,4.59,4.59,0,0,0-3.34,1.36,4.22,4.22,0,0,0,0,6.25,4.72,4.72,0,0,0,3.34,1.29,4.62,4.62,0,0,0,3.26-1.29A4.24,4.24,0,0,0,190,48.95Z"/><path class="cls-1" d="M207,46.84a3.2,3.2,0,0,1-1.79,2.92,6.07,6.07,0,0,1-2.85.68h-4.48v4.22h-1.87V43.24h6.35a6.08,6.08,0,0,1,2.85.68A3.2,3.2,0,0,1,207,46.84Zm-1.87,0a1.71,1.71,0,0,0-1-1.56,3.64,3.64,0,0,0-1.79-.41h-4.48v3.94h4.48a3.64,3.64,0,0,0,1.79-.41A1.71,1.71,0,0,0,205.17,46.84Z"/><polygon class="cls-1" points="18.36 19.39 27.54 19.39 27.54 16.09 18.36 16.09 18.36 10.3 28.45 10.3 28.45 7 4.99 7 4.99 10.3 15.07 10.3 15.07 16.09 5.9 16.09 5.9 19.39 15.07 19.39 15.07 26.94 4.99 26.94 4.99 30.23 28.53 30.23 28.53 26.94 18.36 26.94 18.36 19.39"/><circle class="cls-2" cx="22.49" cy="23.7" r="1.63"/><circle class="cls-1" cx="160.85" cy="34.26" r="1.77"/><path class="cls-1" d="M30.14.84H20.37V4.13h9.77v27A1.9,1.9,0,0,1,28.25,33H5.19a1.9,1.9,0,0,1-1.89-1.85V6A1.92,1.92,0,0,1,5.19,4.13H18V.84H5.19A5.26,5.26,0,0,0,0,6V31.13a5.17,5.17,0,0,0,5.19,5.15H28.25a5.17,5.17,0,0,0,5.19-5.15V.84Z"/><path class="cls-1" d="M139.64,8.21,134,29h9.28a4.47,4.47,0,0,0,4.46-4.46V18.3h-3.29v6.21a1.17,1.17,0,0,1-1.17,1.17h-5l4.51-16.61Z"/><path class="cls-1" d="M127.24,14.09V7.19h-3.33v6.9c0,8.88-.86,13.59-6.22,19.78l-.44.51,2.43,2.23.47-.54a26.56,26.56,0,0,0,5.61-9.3l6.44,8.41,2.6-1.93-8.09-10.52A56.06,56.06,0,0,0,127.24,14.09Z"/><path class="cls-1" d="M150.17,3.92h-2.81V7.21h2.81V31.06a1.92,1.92,0,0,1-1.89,1.89H142.4v3.29h5.87a5.25,5.25,0,0,0,5.19-5.18V3.92Z"/><path class="cls-1" d="M121.46,5.49a1.17,1.17,0,0,1,1.17-1.17h7.26V25.74h3.29V1H122.63a4.47,4.47,0,0,0-4.46,4.46V25.74h3.29Z"/><polygon class="cls-1" points="145.24 3.92 138.57 3.92 139.67 1.13 136.56 0 133.83 7.21 145.24 7.21 145.24 3.92"/><path class="cls-1" d="M56.34,12.63H50.72V16H53v3.69H42.89l0-2.63q0-1.07,1.45-1.07H48.1V12.63h-5q-3.61,0-3.61,3.64v19.8h3.35V29.14H53c0,1.09.26,3.6-1,3.6h-.72v3.33l1.67,0q3.44,0,3.44-3.77v-14h0ZM53,25.78H42.89V23H53Z"/><path class="cls-1" d="M62.22,19.58H58.87l0,13a3.77,3.77,0,0,0,.82,2.75,4,4,0,0,0,2.84.83H72.79V32.77h-9.4q-1.16,0-1.16-1.07V25.17H72.88V21.82H62.22Z"/><path class="cls-1" d="M62,3.86V1.6H58.66v13a3.43,3.43,0,0,0,.85,2.48,4.05,4.05,0,0,0,3,.89H72.81V14.59H63.31a1.56,1.56,0,0,1-1.09-.25A1.07,1.07,0,0,1,62,13.6V7.21H72.92V3.86Z"/><path class="cls-1" d="M40.5,10.13a6.34,6.34,0,0,0,3.61.74H56.34v-.06h0V3H53V7.52H43.74q-.87,0-.87-.67a11.21,11.21,0,0,1,.63-2.28q.63-2,1-3H40.9Q40.39,3.37,40,4.48a10.11,10.11,0,0,0-.72,3A3.08,3.08,0,0,0,40.5,10.13Z"/><path class="cls-1" d="M98.73,26a8.39,8.39,0,0,1-10.28-2.33l-5.64,2.77a14.58,14.58,0,0,0,26.82-8.82l-6.55,3.21A8.35,8.35,0,0,1,98.73,26Z"/><path class="cls-2" d="M107,10.26A14.57,14.57,0,0,0,81.17,22.95l5.65-2.77A8.38,8.38,0,0,1,101.38,13l-12,5.88A8.22,8.22,0,0,0,91,22.45l12.15-6,5.64-2.77A13.43,13.43,0,0,0,107,10.26Z"/><path class="cls-1" d="M171.82,23.4V21.65h-2V23.4h-.18a1.28,1.28,0,0,0-.58.16,2.5,2.5,0,0,0-.61.38,2.57,2.57,0,0,0-.84,2V36.25h2V26.56a1.36,1.36,0,0,1,.24-.92,1.11,1.11,0,0,1,.8-.22h1.92a2.9,2.9,0,0,1-.93,1.49,2.57,2.57,0,0,1-1.07.36V29a5,5,0,0,0,2.5-.89,5.33,5.33,0,0,0,1.6-2.73H180q.25.72.38,1A4.24,4.24,0,0,0,181.49,28a4.45,4.45,0,0,0,2.67,1V27.28a2.52,2.52,0,0,1-1.11-.39,2.8,2.8,0,0,1-.83-1.26l-.09-.2h.49v-2Z"/><polygon class="cls-1" points="187.46 19 178.41 19 178.41 17.69 176.39 17.69 176.39 19 167.35 19 167.35 21.05 187.46 21.05 187.46 19"/><path class="cls-1" d="M210,19.1h-.47V17.6h-2v1.5H206l-.2-1.46h-2L204,19.1h-5a2.83,2.83,0,0,0-1.91.65,2.72,2.72,0,0,0-1,2.15V33.62a.56.56,0,0,1-.5.64v2a2.64,2.64,0,0,0,1.94-.93,3.37,3.37,0,0,0,.6-2.18v-8h2.13a.73.73,0,0,1,.83.82v6.34a1.24,1.24,0,0,1-.15.72.82.82,0,0,1-.68.25h-1v2h1.85a2,2,0,0,0,1.45-.55,2,2,0,0,0,.55-1.5V25a1.78,1.78,0,0,0-.53-1.35,2.45,2.45,0,0,0-1.72-.54h-2.71v-.92a1,1,0,0,1,.36-.71,1.41,1.41,0,0,1,1-.32h4.74l1.13,8.62L203.89,31v2.68l2-1.68a8.11,8.11,0,0,0,1.64,2.86A5.94,5.94,0,0,0,210,36.4V34.22a6.52,6.52,0,0,1-2.42-3.65,7.18,7.18,0,0,0,2-2.6,7.39,7.39,0,0,0,.33-2.56h-2a7.49,7.49,0,0,1-.09,1.42,2.73,2.73,0,0,1-.66,1.27l-.89-7H210Z"/><polygon class="cls-1" points="193.32 17.83 191.3 17.83 191.3 20.89 189.72 20.89 189.72 22.92 191.3 22.92 191.3 34.09 189.72 34.09 189.72 36.11 194.9 36.11 194.9 34.09 193.32 34.09 193.32 22.92 194.9 22.92 194.9 20.89 193.32 20.89 193.32 17.83"/><path class="cls-1" d="M185.2,27.55V33a1.16,1.16,0,0,1-.87,1.2V30.7a1.36,1.36,0,0,0-.33-1,1.34,1.34,0,0,0-1-.37H172.15a1.64,1.64,0,0,0-1.18.35,1.51,1.51,0,0,0-.36,1.11v3.07A1.21,1.21,0,0,0,172,35.19H183a1.93,1.93,0,0,0,.82-.23v1.28h.25a3.87,3.87,0,0,0,1.48-.22A2.9,2.9,0,0,0,186.84,35a3.61,3.61,0,0,0,.42-1.95V27h-2.07C185.19,27.15,185.2,27.34,185.2,27.55Zm-2.68,5.33q0,.38-.09.45a1.11,1.11,0,0,1-.67.12H173a.86.86,0,0,1-.48-.09q-.12-.08-.12-.38V31.56a.5.5,0,0,1,.12-.39,1,1,0,0,1,.58-.12h8.63a1,1,0,0,1,.65.14.78.78,0,0,1,.13.55Z"/><rect class="cls-1" x="178.69" y="23.4" width="8.56" height="2.03"/><rect class="cls-1" x="182.2" y="26.39" width="8.04" height="2.06" transform="translate(158.8 213.64) rotate(-90)"/><rect class="cls-1" x="181.99" y="22.29" width="3.36" height="2.06" transform="translate(160.35 206.99) rotate(-90)"/></svg>